<svg xmlns="http://www.w3.org/2000/svg" viewBox="0 0 1200 320" role="img" aria-label="Cove: a calm, voice-first Android companion">
  <defs>
    <linearGradient id="sky" x1="0" y1="0" x2="0" y2="1">
      <stop offset="0" stop-color="#FBEBC2"/>
      <stop offset="1" stop-color="#F6F1E6"/>
    </linearGradient>
  </defs>
  <rect width="1200" height="320" fill="url(#sky)"/>
  <circle cx="930" cy="96" r="46" fill="#F2C14E"/>
  <circle cx="944" cy="108" r="26" fill="#EE8B60" fill-opacity="0.45"/>
  <circle cx="918" cy="86" r="18" fill="#FBEBC2"/>
  <g fill="#FFFFFF" fill-opacity="0.8">
    <ellipse cx="720" cy="70" rx="58" ry="14"/>
    <ellipse cx="760" cy="58" rx="34" ry="12"/>
    <ellipse cx="1090" cy="150" rx="46" ry="11"/>
  </g>
  <path d="M0 232 C 160 182 320 190 470 226 C 640 266 800 190 980 206 C 1070 214 1140 232 1200 224 L1200 320 L0 320 Z" fill="#9DBB8E"/>
  <path d="M0 262 C 200 222 380 250 560 266 C 760 284 960 232 1200 258 L1200 320 L0 320 Z" fill="#6E9A74"/>
  <path d="M0 296 C 260 270 520 300 780 290 C 960 284 1100 280 1200 292 L1200 320 L0 320 Z" fill="#24402F"/>
  <g fill="#F2C14E">
    <circle cx="150" cy="276" r="5"/><circle cx="412" cy="284" r="4"/><circle cx="860" cy="270" r="5"/><circle cx="1040" cy="276" r="4"/>
  </g>
  <g fill="#EE8B60"><circle cx="262" cy="286" r="4"/><circle cx="702" cy="278" r="4"/></g>
  <text x="80" y="140" font-family="Georgia, 'Times New Roman', serif" font-size="92" font-weight="700" fill="#1F2B22">Cove</text>
  <text x="84" y="188" font-family="-apple-system, 'Segoe UI', Helvetica, Arial, sans-serif" font-size="28" fill="#1F2B22" fill-opacity="0.72">Say it once. Cove remembers the rest.</text>
</svg>
